<svg xmlns="http://www.w3.org/2000/svg" viewBox="0 0 1536 1536">
  <path id="textPath0" d="M 848 824 L 847 825 L 845 825 L 845 826 L 849 826 L 850 827 L 849 828 L 846 828 L 846 829 L 847 829 L 848 830 L 847 831 L 844 831 L 843 832 L 843 833 L 844 834 L 844 835 L 846 837 L 846 838 L 851 843 L 851 844 L 854 847 L 855 847 L 858 850 L 859 850 L 861 852 L 862 852 L 863 853 L 864 853 L 865 854 L 866 854 L 867 855 L 869 855 L 870 856 L 872 856 L 873 857 L 875 857 L 876 858 L 879 858 L 880 859 L 883 859 L 884 860 L 888 860 L 889 861 L 895 861 L 896 862 L 926 862 L 927 861 L 935 861 L 936 860 L 941 860 L 942 859 L 946 859 L 947 858 L 951 858 L 952 857 L 955 857 L 956 856 L 960 856 L 961 855 L 964 855 L 965 854 L 966 854 L 967 853 L 969 853 L 970 852 L 971 852 L 970 852 L 969 853 L 964 853 L 963 854 L 959 854 L 958 855 L 954 855 L 953 856 L 949 856 L 948 857 L 944 857 L 943 858 L 937 858 L 936 859 L 928 859 L 927 860 L 897 860 L 896 859 L 891 859 L 890 858 L 887 858 L 886 857 L 884 857 L 883 856 L 881 856 L 880 855 L 879 855 L 878 854 L 877 854 L 876 853 L 874 853 L 873 852 L 872 852 L 870 850 L 869 850 L 865 846 L 864 846 L 861 843 L 861 842 L 858 839 L 858 838 L 856 836 L 856 834 L 855 833 L 855 832 L 854 831 L 854 829 L 853 828 L 853 826 L 852 825 L 852 824 L 851 825 L 850 824 Z" fill="none" stroke="white" stroke-width="1"/>
  <path id="textPath1" d="M 1030 821 L 1029 822 L 1028 822 L 1029 823 L 1034 823 L 1035 822 L 1036 822 L 1037 821 Z" fill="none" stroke="white" stroke-width="1"/>
  <path id="textPath2" d="M 1308 808 L 1309 809 L 1309 810 L 1304 815 L 1303 815 L 1302 816 L 1301 816 L 1300 815 L 1304 811 L 1305 811 Z" fill="none" stroke="white" stroke-width="1"/>
  <path id="textPath3" d="M 980 806 L 979 807 L 978 807 L 980 807 L 981 808 L 980 809 L 978 809 L 979 810 L 979 811 L 977 813 L 977 816 L 978 816 L 979 817 L 980 817 L 981 816 L 982 816 L 984 818 L 985 818 L 986 819 L 989 819 L 990 820 L 990 821 L 991 821 L 992 820 L 995 820 L 996 821 L 997 821 L 998 822 L 997 823 L 991 823 L 992 823 L 993 824 L 995 824 L 996 825 L 998 825 L 999 826 L 1002 826 L 1003 827 L 1019 827 L 1020 826 L 1025 826 L 1025 825 L 1022 825 L 1021 826 L 1019 826 L 1018 825 L 1009 825 L 1009 826 L 1008 827 L 1005 827 L 1004 826 L 1005 825 L 1006 825 L 1007 824 L 1004 824 L 1003 823 L 1002 823 L 1001 822 L 1000 822 L 999 821 L 997 821 L 996 820 L 996 819 L 995 819 L 992 816 L 992 815 L 990 813 L 990 812 L 989 811 L 989 810 L 988 809 L 988 808 L 986 808 L 985 807 L 986 808 L 985 809 L 982 809 L 981 808 L 982 807 L 981 806 Z" fill="none" stroke="white" stroke-width="1"/>
  <path id="textPath4" d="M 480 806 L 479 807 L 479 809 L 480 809 L 481 810 L 482 810 L 483 809 L 483 807 L 482 806 Z" fill="none" stroke="white" stroke-width="1"/>
  <path id="textPath5" d="M 850 803 L 849 804 L 844 804 L 843 805 L 837 805 L 837 816 L 840 816 L 841 817 L 844 817 L 845 816 L 850 816 Z" fill="none" stroke="white" stroke-width="1"/>
  <path id="textPath6" d="M 1210 793 L 1209 794 L 1208 794 L 1208 796 L 1207 797 L 1207 799 L 1206 800 L 1206 802 L 1205 803 L 1205 805 L 1204 806 L 1204 807 L 1203 808 L 1203 809 L 1197 815 L 1196 815 L 1195 816 L 1194 816 L 1193 817 L 1192 817 L 1193 818 L 1194 818 L 1195 819 L 1196 819 L 1197 820 L 1199 820 L 1200 821 L 1204 821 L 1205 820 L 1206 820 L 1207 819 L 1208 819 L 1210 817 L 1211 817 L 1211 816 L 1214 813 L 1214 812 L 1215 811 L 1215 810 L 1216 809 L 1216 807 L 1217 806 L 1217 805 L 1218 804 L 1218 802 L 1219 801 L 1219 799 L 1220 798 L 1220 797 L 1221 796 L 1221 794 L 1214 794 L 1213 793 Z" fill="none" stroke="white" stroke-width="1"/>
  <path id="textPath7" d="M 1005 793 L 1005 795 L 1006 796 L 1006 797 L 1005 798 L 1011 798 L 1010 797 L 1009 797 L 1008 796 L 1008 795 L 1009 794 L 1008 793 Z" fill="none" stroke="white" stroke-width="1"/>
  <path id="textPath8" d="M 285 793 L 285 795 L 284 796 L 284 801 L 283 802 L 283 805 L 282 806 L 282 807 L 281 808 L 281 810 L 280 811 L 280 812 L 275 817 L 274 817 L 273 818 L 274 819 L 275 819 L 276 820 L 282 820 L 283 819 L 284 819 L 288 815 L 288 814 L 290 812 L 290 811 L 291 810 L 291 808 L 292 807 L 292 806 L 293 805 L 293 803 L 294 802 L 294 801 L 295 800 L 295 798 L 296 797 L 296 796 L 297 795 L 297 794 L 288 794 L 287 793 Z" fill="none" stroke="white" stroke-width="1"/>
  <path id="textPath9" d="M 633 789 L 634 788 L 638 788 L 639 789 L 638 790 L 634 790 Z" fill="none" stroke="white" stroke-width="1"/>
  <path id="textPath10" d="M 578 789 L 579 788 L 583 788 L 584 789 L 583 790 L 579 790 Z" fill="none" stroke="white" stroke-width="1"/>
  <path id="textPath11" d="M 718 788 L 719 787 L 727 787 L 728 788 L 728 789 L 727 790 L 722 790 L 721 789 L 719 789 Z" fill="none" stroke="white" stroke-width="1"/>
  <path id="textPath12" d="M 337 788 L 336 789 L 335 789 L 335 791 L 336 792 L 338 792 L 339 793 L 339 796 L 338 797 L 338 802 L 337 803 L 337 810 L 338 811 L 338 814 L 339 815 L 339 816 L 342 819 L 344 819 L 345 820 L 353 820 L 354 819 L 356 819 L 357 818 L 358 818 L 359 817 L 360 817 L 361 816 L 362 816 L 367 811 L 367 810 L 369 808 L 369 807 L 370 806 L 370 804 L 371 803 L 371 802 L 372 801 L 372 799 L 373 798 L 372 799 L 371 799 L 370 800 L 370 802 L 369 803 L 369 804 L 367 806 L 367 807 L 366 808 L 366 809 L 364 811 L 364 812 L 362 814 L 361 814 L 358 817 L 353 817 L 350 814 L 350 812 L 349 811 L 349 806 L 350 805 L 350 801 L 351 800 L 351 797 L 352 796 L 351 795 L 351 794 L 353 792 L 353 790 L 345 790 L 344 789 L 343 789 L 342 790 L 340 790 L 339 789 L 338 789 Z" fill="none" stroke="white" stroke-width="1"/>
  <path id="textPath13" d="M 324 788 L 323 789 L 321 789 L 320 790 L 318 790 L 317 789 L 315 789 L 315 791 L 314 792 L 314 794 L 313 795 L 313 797 L 312 798 L 312 800 L 311 801 L 308 801 L 308 802 L 307 803 L 307 805 L 308 806 L 309 806 L 310 807 L 310 808 L 311 809 L 311 815 L 313 817 L 313 818 L 314 819 L 315 819 L 317 821 L 322 821 L 324 819 L 325 819 L 326 818 L 324 816 L 324 815 L 323 814 L 323 800 L 324 799 L 324 794 L 325 793 L 325 791 L 324 790 L 325 789 L 326 789 L 326 788 Z" fill="none" stroke="white" stroke-width="1"/>
  <path id="textPath14" d="M 988 786 L 987 787 L 985 787 L 983 789 L 982 788 L 977 788 L 975 790 L 975 795 L 976 796 L 977 795 L 978 795 L 979 796 L 980 796 L 981 795 L 984 795 L 985 796 L 986 796 L 986 795 L 987 794 L 987 792 L 988 791 L 988 790 L 989 789 L 989 788 L 990 787 L 989 786 Z" fill="none" stroke="white" stroke-width="1"/>
  <path id="textPath15" d="M 666 783 L 667 782 L 672 782 L 673 783 L 672 784 L 667 784 Z" fill="none" stroke="white" stroke-width="1"/>
  <path id="textPath16" d="M 610 783 L 611 782 L 617 782 L 618 783 L 617 784 L 611 784 Z" fill="none" stroke="white" stroke-width="1"/>
  <path id="textPath17" d="M 1287 778 L 1287 780 L 1288 781 L 1288 782 L 1287 783 L 1287 786 L 1289 786 L 1290 785 L 1291 785 L 1292 786 L 1296 786 L 1297 785 L 1299 785 L 1301 783 L 1289 783 L 1288 782 L 1289 781 L 1302 781 L 1302 780 L 1303 779 L 1301 779 L 1300 780 L 1297 780 L 1296 779 L 1292 779 L 1291 778 Z" fill="none" stroke="white" stroke-width="1"/>
  <path id="textPath18" d="M 1352 777 L 1354 779 L 1354 780 L 1355 781 L 1355 782 L 1357 782 L 1357 780 L 1355 778 L 1355 777 Z" fill="none" stroke="white" stroke-width="1"/>
  <path id="textPath19" d="M 1245 777 L 1248 780 L 1248 781 L 1249 782 L 1248 783 L 1248 784 L 1251 784 L 1253 786 L 1252 787 L 1250 787 L 1251 787 L 1252 788 L 1251 789 L 1246 789 L 1246 790 L 1245 791 L 1245 793 L 1244 794 L 1244 800 L 1243 801 L 1243 809 L 1244 810 L 1244 815 L 1249 820 L 1250 820 L 1251 821 L 1257 821 L 1258 820 L 1261 820 L 1262 819 L 1263 819 L 1264 818 L 1265 818 L 1266 817 L 1267 817 L 1268 816 L 1269 816 L 1270 815 L 1271 815 L 1273 813 L 1274 813 L 1276 811 L 1277 812 L 1277 813 L 1278 814 L 1278 815 L 1279 816 L 1279 817 L 1280 818 L 1281 818 L 1282 819 L 1283 819 L 1284 820 L 1289 820 L 1290 819 L 1292 819 L 1293 818 L 1294 818 L 1295 817 L 1297 817 L 1298 816 L 1300 818 L 1301 818 L 1302 819 L 1303 819 L 1304 820 L 1306 820 L 1307 821 L 1310 821 L 1311 820 L 1313 820 L 1314 819 L 1315 819 L 1320 814 L 1320 813 L 1321 812 L 1321 811 L 1323 809 L 1323 808 L 1324 807 L 1324 805 L 1325 804 L 1325 802 L 1326 801 L 1326 798 L 1327 797 L 1327 796 L 1328 795 L 1328 794 L 1321 794 L 1320 793 L 1319 794 L 1318 793 L 1317 793 L 1316 794 L 1315 794 L 1315 796 L 1314 797 L 1314 799 L 1307 806 L 1306 806 L 1303 809 L 1302 809 L 1301 810 L 1300 810 L 1299 811 L 1294 811 L 1291 808 L 1291 807 L 1290 806 L 1290 802 L 1291 801 L 1290 801 L 1289 800 L 1290 799 L 1291 799 L 1292 798 L 1292 796 L 1293 795 L 1293 794 L 1294 793 L 1294 792 L 1295 791 L 1294 791 L 1293 790 L 1286 790 L 1285 791 L 1285 793 L 1284 794 L 1284 796 L 1283 797 L 1283 799 L 1282 800 L 1282 802 L 1281 803 L 1281 804 L 1276 809 L 1275 809 L 1274 808 L 1271 808 L 1271 810 L 1272 811 L 1272 812 L 1271 813 L 1270 813 L 1269 814 L 1268 814 L 1266 816 L 1265 816 L 1264 817 L 1262 817 L 1261 818 L 1257 818 L 1254 815 L 1254 814 L 1253 813 L 1253 803 L 1254 802 L 1254 799 L 1255 798 L 1255 795 L 1256 794 L 1256 792 L 1257 791 L 1257 789 L 1256 788 L 1257 787 L 1254 787 L 1253 786 L 1254 785 L 1258 785 L 1259 786 L 1260 785 L 1260 784 L 1261 783 L 1261 782 L 1263 780 L 1263 779 L 1258 779 L 1257 778 L 1253 778 L 1254 779 L 1254 780 L 1253 781 L 1252 781 L 1250 779 L 1251 778 L 1250 779 L 1248 777 Z" fill="none" stroke="white" stroke-width="1"/>
  <path id="textPath20" d="M 1185 777 L 1186 777 L 1188 779 L 1186 781 L 1183 781 L 1182 780 L 1179 780 L 1179 781 L 1184 781 L 1185 782 L 1188 782 L 1189 783 L 1187 785 L 1184 785 L 1183 786 L 1182 785 L 1177 785 L 1176 786 L 1176 787 L 1175 788 L 1175 790 L 1174 791 L 1174 792 L 1173 793 L 1175 795 L 1174 796 L 1172 796 L 1172 797 L 1171 798 L 1171 799 L 1170 800 L 1170 801 L 1169 802 L 1169 803 L 1167 805 L 1167 806 L 1166 807 L 1166 808 L 1165 809 L 1165 810 L 1163 812 L 1163 813 L 1161 815 L 1161 816 L 1158 819 L 1160 819 L 1161 820 L 1162 820 L 1163 821 L 1164 821 L 1165 820 L 1166 820 L 1167 821 L 1169 821 L 1170 822 L 1169 823 L 1157 823 L 1156 824 L 1154 824 L 1153 825 L 1152 825 L 1149 828 L 1148 828 L 1147 829 L 1146 829 L 1145 830 L 1144 830 L 1143 831 L 1142 831 L 1141 832 L 1130 832 L 1129 831 L 1128 831 L 1127 830 L 1125 830 L 1124 829 L 1123 829 L 1122 828 L 1121 828 L 1117 824 L 1116 824 L 1115 823 L 1110 823 L 1113 826 L 1114 826 L 1115 827 L 1120 827 L 1121 828 L 1120 829 L 1119 829 L 1118 830 L 1119 830 L 1120 831 L 1121 831 L 1122 832 L 1123 832 L 1124 833 L 1126 833 L 1127 834 L 1128 834 L 1129 835 L 1132 835 L 1133 836 L 1148 836 L 1149 835 L 1152 835 L 1153 834 L 1155 834 L 1156 833 L 1157 833 L 1158 832 L 1160 832 L 1161 831 L 1162 831 L 1164 829 L 1165 829 L 1169 825 L 1170 825 L 1174 821 L 1174 820 L 1177 817 L 1177 816 L 1179 814 L 1179 813 L 1181 811 L 1181 810 L 1176 810 L 1175 809 L 1176 808 L 1182 808 L 1184 806 L 1184 804 L 1185 803 L 1185 802 L 1186 801 L 1186 800 L 1187 799 L 1187 798 L 1188 797 L 1188 796 L 1189 795 L 1189 794 L 1190 793 L 1190 792 L 1191 791 L 1191 789 L 1192 788 L 1192 786 L 1189 786 L 1188 785 L 1189 784 L 1193 784 L 1193 783 L 1194 782 L 1194 781 L 1193 781 L 1192 780 L 1190 780 L 1187 777 Z" fill="none" stroke="white" stroke-width="1"/>
  <path id="textPath21" d="M 1103 774 L 1104 773 L 1116 773 L 1117 774 L 1116 775 L 1108 775 L 1107 776 L 1101 776 L 1100 775 L 1101 774 Z" fill="none" stroke="white" stroke-width="1"/>
  <path id="textPath22" d="M 549 774 L 550 773 L 552 773 L 553 774 L 557 774 L 558 775 L 557 776 L 550 776 L 549 775 Z" fill="none" stroke="white" stroke-width="1"/>
  <path id="textPath23" d="M 1090 772 L 1091 773 L 1100 773 L 1101 774 L 1100 775 L 1097 775 L 1096 776 L 1095 776 L 1094 777 L 1092 777 L 1091 776 L 1092 775 L 1089 775 L 1088 774 Z" fill="none" stroke="white" stroke-width="1"/>
  <path id="textPath24" d="M 1012 773 L 1011 774 L 1008 774 L 1007 775 L 1004 775 L 1003 776 L 1001 776 L 1000 777 L 999 777 L 998 778 L 997 778 L 996 779 L 999 779 L 1000 778 L 1001 778 L 1002 777 L 1006 777 L 1007 776 L 1025 776 L 1021 776 L 1020 775 L 1016 775 L 1015 774 L 1013 774 Z" fill="none" stroke="white" stroke-width="1"/>
  <path id="textPath25" d="M 346 770 L 347 769 L 348 769 L 350 771 L 349 772 L 345 772 L 344 771 L 345 770 Z" fill="none" stroke="white" stroke-width="1"/>
  <path id="textPath26" d="M 303 769 L 304 770 L 305 770 L 306 771 L 306 772 L 305 773 L 304 772 L 302 772 L 301 771 Z" fill="none" stroke="white" stroke-width="1"/>
  <path id="textPath27" d="M 473 769 L 469 773 L 469 774 L 475 774 L 475 773 L 476 772 L 472 772 L 471 771 L 472 770 L 473 770 L 474 769 L 475 769 Z" fill="none" stroke="white" stroke-width="1"/>
  <path id="textPath28" d="M 283 766 L 282 767 L 281 767 L 280 768 L 284 768 L 285 769 L 290 769 L 287 766 Z" fill="none" stroke="white" stroke-width="1"/>
  <path id="textPath29" d="M 642 764 L 641 765 L 640 765 L 636 769 L 637 768 L 638 768 L 639 767 L 640 768 L 663 768 L 664 769 L 663 770 L 661 770 L 662 771 L 661 772 L 657 772 L 656 771 L 654 771 L 652 773 L 659 773 L 660 774 L 659 775 L 656 775 L 656 780 L 669 780 L 670 781 L 669 782 L 665 782 L 665 783 L 664 784 L 663 784 L 662 785 L 658 785 L 658 786 L 660 788 L 661 788 L 662 789 L 668 789 L 669 788 L 671 788 L 672 787 L 673 787 L 674 786 L 675 786 L 676 785 L 677 785 L 677 784 L 678 783 L 681 783 L 682 782 L 682 781 L 683 780 L 685 780 L 687 778 L 688 779 L 688 782 L 687 783 L 687 786 L 686 787 L 686 788 L 685 789 L 685 790 L 684 791 L 684 793 L 683 794 L 683 795 L 682 796 L 682 797 L 681 798 L 681 799 L 680 800 L 680 802 L 679 803 L 679 811 L 680 812 L 680 813 L 681 814 L 682 814 L 684 816 L 686 816 L 687 817 L 690 817 L 691 818 L 697 818 L 698 817 L 702 817 L 703 816 L 705 816 L 706 815 L 707 815 L 708 816 L 707 817 L 707 819 L 704 822 L 704 823 L 702 825 L 702 826 L 701 827 L 700 827 L 695 832 L 695 833 L 693 835 L 686 835 L 684 837 L 684 838 L 683 839 L 684 840 L 684 844 L 679 849 L 679 850 L 677 852 L 677 853 L 676 854 L 676 855 L 675 856 L 675 857 L 674 858 L 674 866 L 676 868 L 676 869 L 681 874 L 683 874 L 684 875 L 686 875 L 687 874 L 689 874 L 690 873 L 691 873 L 692 872 L 693 872 L 696 869 L 696 868 L 699 865 L 699 864 L 700 863 L 700 862 L 702 860 L 702 859 L 703 858 L 703 857 L 705 855 L 705 854 L 706 853 L 706 851 L 707 850 L 707 849 L 708 848 L 708 846 L 709 845 L 709 844 L 710 843 L 710 842 L 711 841 L 711 840 L 712 839 L 712 837 L 713 836 L 713 834 L 714 833 L 714 831 L 715 830 L 715 828 L 716 827 L 716 825 L 717 824 L 717 822 L 718 821 L 718 820 L 719 819 L 719 818 L 725 812 L 725 811 L 727 809 L 728 809 L 730 807 L 730 806 L 736 800 L 737 800 L 738 799 L 738 798 L 739 797 L 740 797 L 743 794 L 744 794 L 746 792 L 747 792 L 748 791 L 748 790 L 746 790 L 745 791 L 744 791 L 741 794 L 740 794 L 736 798 L 735 798 L 734 799 L 734 800 L 723 811 L 722 810 L 722 806 L 723 805 L 723 802 L 724 801 L 724 799 L 725 798 L 725 795 L 726 794 L 726 793 L 727 792 L 727 790 L 728 789 L 728 787 L 729 786 L 729 784 L 730 783 L 730 780 L 731 779 L 731 778 L 732 777 L 731 777 L 730 776 L 724 776 L 723 775 L 723 774 L 724 773 L 726 773 L 727 774 L 731 774 L 732 775 L 734 773 L 734 772 L 735 771 L 729 771 L 728 770 L 728 769 L 729 768 L 730 769 L 731 769 L 732 768 L 737 768 L 738 767 L 739 767 L 725 767 L 724 768 L 724 769 L 721 772 L 721 773 L 719 775 L 719 777 L 718 778 L 718 780 L 717 781 L 717 782 L 716 783 L 716 785 L 715 786 L 715 787 L 714 788 L 714 790 L 713 791 L 713 793 L 712 794 L 712 796 L 711 797 L 711 801 L 710 802 L 710 807 L 709 808 L 709 810 L 706 813 L 705 813 L 703 815 L 696 815 L 695 814 L 694 814 L 693 813 L 693 812 L 692 811 L 692 809 L 691 808 L 692 807 L 692 803 L 693 802 L 693 800 L 694 799 L 694 798 L 695 797 L 695 796 L 696 795 L 696 794 L 697 793 L 697 792 L 698 791 L 698 789 L 699 788 L 699 786 L 700 785 L 700 784 L 701 783 L 701 781 L 702 780 L 702 777 L 703 776 L 703 769 L 702 768 L 698 768 L 698 769 L 697 770 L 695 770 L 694 769 L 694 768 L 696 766 L 699 766 L 700 765 L 701 766 L 700 765 L 698 765 L 697 764 L 691 764 L 692 765 L 692 767 L 693 767 L 694 768 L 693 769 L 688 769 L 687 768 L 685 768 L 684 767 L 685 766 L 689 766 L 685 766 L 684 767 L 683 767 L 682 768 L 682 769 L 684 769 L 685 770 L 686 770 L 687 771 L 688 771 L 689 772 L 689 773 L 688 774 L 688 775 L 689 776 L 688 777 L 686 777 L 683 780 L 682 780 L 679 783 L 674 783 L 673 782 L 672 782 L 671 781 L 671 780 L 670 779 L 670 775 L 669 774 L 669 772 L 668 771 L 669 770 L 669 765 L 668 764 L 667 764 L 664 767 L 662 767 L 661 768 L 657 768 L 656 767 L 655 767 L 654 766 L 653 766 L 652 765 L 650 765 L 649 764 Z" fill="none" stroke="white" stroke-width="1"/>
  <path id="textPath30" d="M 587 764 L 586 765 L 584 765 L 580 769 L 581 768 L 582 768 L 583 767 L 584 767 L 585 768 L 607 768 L 608 769 L 607 770 L 605 770 L 606 771 L 605 772 L 601 772 L 600 771 L 598 771 L 598 772 L 597 773 L 604 773 L 605 774 L 604 775 L 601 775 L 601 780 L 613 780 L 614 781 L 613 782 L 610 782 L 608 784 L 607 784 L 606 785 L 602 785 L 602 786 L 604 788 L 605 788 L 606 789 L 613 789 L 614 788 L 615 788 L 616 787 L 617 787 L 618 786 L 620 786 L 621 785 L 622 785 L 621 784 L 622 783 L 625 783 L 626 782 L 626 781 L 627 780 L 628 780 L 629 781 L 629 783 L 628 784 L 628 786 L 627 787 L 627 788 L 628 788 L 629 789 L 628 790 L 626 790 L 626 792 L 627 793 L 626 794 L 627 793 L 629 795 L 628 796 L 624 796 L 624 798 L 623 799 L 623 801 L 622 802 L 622 803 L 621 804 L 621 805 L 620 806 L 620 807 L 618 809 L 618 810 L 616 812 L 616 813 L 614 815 L 613 815 L 612 816 L 610 816 L 611 816 L 612 817 L 614 817 L 615 818 L 621 818 L 622 817 L 624 817 L 625 816 L 626 816 L 630 812 L 630 811 L 633 808 L 633 807 L 634 806 L 634 805 L 635 804 L 635 803 L 636 802 L 636 800 L 637 799 L 637 798 L 638 797 L 638 795 L 639 794 L 639 792 L 640 791 L 640 789 L 641 788 L 641 785 L 642 784 L 642 783 L 635 783 L 633 781 L 634 780 L 642 780 L 643 781 L 644 780 L 648 780 L 649 779 L 648 778 L 649 777 L 651 777 L 653 775 L 650 775 L 646 779 L 645 779 L 644 778 L 645 777 L 645 775 L 643 775 L 644 775 L 645 776 L 644 777 L 641 777 L 640 776 L 641 775 L 640 775 L 639 776 L 633 776 L 632 775 L 633 774 L 636 774 L 637 773 L 648 773 L 648 772 L 634 772 L 632 774 L 632 776 L 631 777 L 630 777 L 625 782 L 624 782 L 623 783 L 621 783 L 620 784 L 619 783 L 618 783 L 617 782 L 616 782 L 615 781 L 615 779 L 614 778 L 614 772 L 613 771 L 613 764 L 611 764 L 608 767 L 607 767 L 606 768 L 602 768 L 601 767 L 599 767 L 598 766 L 597 766 L 596 765 L 594 765 L 593 764 Z" fill="none" stroke="white" stroke-width="1"/>
  <path id="textPath31" d="M 730 763 L 729 764 L 728 764 L 727 765 L 738 765 L 737 765 L 735 763 Z" fill="none" stroke="white" stroke-width="1"/>
  <path id="textPath32" d="M 307 763 L 306 764 L 303 764 L 302 765 L 301 765 L 300 766 L 299 766 L 298 767 L 297 767 L 295 769 L 295 770 L 296 771 L 295 772 L 293 772 L 292 773 L 290 773 L 289 774 L 284 774 L 284 775 L 291 775 L 292 774 L 293 774 L 295 776 L 294 777 L 286 777 L 285 778 L 285 782 L 286 782 L 287 783 L 286 784 L 285 784 L 285 791 L 298 791 L 298 790 L 299 789 L 299 786 L 300 785 L 298 785 L 297 784 L 298 783 L 300 783 L 301 782 L 301 780 L 302 779 L 302 778 L 303 777 L 303 776 L 299 776 L 298 775 L 297 775 L 296 774 L 297 773 L 305 773 L 306 772 L 306 771 L 309 768 L 311 768 L 312 767 L 313 767 L 314 768 L 315 768 L 318 771 L 318 772 L 319 773 L 319 775 L 320 775 L 321 774 L 327 774 L 328 775 L 326 777 L 325 776 L 326 777 L 325 778 L 324 778 L 323 777 L 319 777 L 318 778 L 318 782 L 317 783 L 317 785 L 327 785 L 327 782 L 328 781 L 328 780 L 329 779 L 329 777 L 330 776 L 330 775 L 332 773 L 332 772 L 333 771 L 334 771 L 335 770 L 340 770 L 342 772 L 342 773 L 343 773 L 344 774 L 347 774 L 348 775 L 347 776 L 343 776 L 343 780 L 342 781 L 342 784 L 347 784 L 348 785 L 353 785 L 354 784 L 354 777 L 353 777 L 352 776 L 349 776 L 348 775 L 349 774 L 354 774 L 354 770 L 353 769 L 353 767 L 351 765 L 349 765 L 348 764 L 345 764 L 344 765 L 340 765 L 339 766 L 337 766 L 335 768 L 334 768 L 332 770 L 331 770 L 330 771 L 329 771 L 328 770 L 328 769 L 327 768 L 327 767 L 326 766 L 325 766 L 324 765 L 323 765 L 322 764 L 319 764 L 318 763 Z" fill="none" stroke="white" stroke-width="1"/>
  <path id="textPath33" d="M 1333 762 L 1332 763 L 1329 763 L 1327 765 L 1326 765 L 1326 766 L 1328 766 L 1329 767 L 1328 768 L 1324 768 L 1324 769 L 1328 769 L 1330 771 L 1329 772 L 1325 772 L 1324 773 L 1323 773 L 1322 774 L 1321 774 L 1321 775 L 1324 775 L 1325 774 L 1326 774 L 1328 776 L 1327 777 L 1320 777 L 1320 778 L 1319 779 L 1319 780 L 1318 781 L 1318 782 L 1319 782 L 1320 783 L 1319 784 L 1318 784 L 1317 785 L 1317 787 L 1316 788 L 1316 791 L 1329 791 L 1329 789 L 1330 788 L 1330 786 L 1331 785 L 1331 784 L 1332 783 L 1332 779 L 1333 778 L 1332 777 L 1333 776 L 1334 776 L 1334 775 L 1330 775 L 1329 774 L 1330 773 L 1336 773 L 1336 772 L 1335 772 L 1334 771 L 1336 769 L 1337 770 L 1338 770 L 1339 769 L 1344 769 L 1345 770 L 1346 770 L 1350 774 L 1351 774 L 1352 775 L 1353 775 L 1352 774 L 1352 773 L 1347 768 L 1346 768 L 1343 765 L 1342 765 L 1341 764 L 1337 764 L 1336 763 L 1335 763 L 1334 762 Z" fill="none" stroke="white" stroke-width="1"/>
  <path id="textPath34" d="M 1270 762 L 1269 763 L 1265 763 L 1263 765 L 1262 765 L 1261 766 L 1260 766 L 1257 769 L 1257 770 L 1256 771 L 1253 768 L 1252 769 L 1252 771 L 1254 773 L 1253 774 L 1253 775 L 1259 775 L 1260 776 L 1261 775 L 1262 776 L 1266 776 L 1265 776 L 1264 775 L 1265 774 L 1267 774 L 1270 771 L 1271 771 L 1272 770 L 1273 770 L 1274 769 L 1276 769 L 1277 768 L 1278 768 L 1279 769 L 1280 769 L 1281 770 L 1283 770 L 1281 768 L 1273 768 L 1272 767 L 1273 766 L 1279 766 L 1277 764 L 1276 764 L 1275 763 L 1272 763 L 1271 762 Z" fill="none" stroke="white" stroke-width="1"/>
  <path id="textPath35" d="M 1226 762 L 1225 763 L 1223 763 L 1222 764 L 1221 764 L 1219 766 L 1221 766 L 1222 767 L 1221 768 L 1217 768 L 1217 769 L 1220 769 L 1221 770 L 1222 770 L 1223 771 L 1222 772 L 1218 772 L 1217 773 L 1216 773 L 1215 774 L 1214 774 L 1213 775 L 1217 775 L 1218 774 L 1219 774 L 1221 776 L 1220 777 L 1213 777 L 1213 778 L 1212 779 L 1212 782 L 1213 783 L 1212 784 L 1211 784 L 1211 785 L 1210 786 L 1210 789 L 1209 790 L 1209 791 L 1222 791 L 1223 790 L 1223 787 L 1224 786 L 1224 783 L 1225 782 L 1225 780 L 1226 779 L 1226 778 L 1225 777 L 1226 776 L 1227 776 L 1226 775 L 1223 775 L 1222 774 L 1224 772 L 1225 773 L 1229 773 L 1229 772 L 1228 772 L 1227 771 L 1229 769 L 1230 769 L 1231 770 L 1232 769 L 1238 769 L 1243 774 L 1244 774 L 1245 775 L 1246 775 L 1246 774 L 1238 766 L 1237 766 L 1236 765 L 1235 765 L 1234 764 L 1233 764 L 1232 763 L 1231 764 L 1230 764 L 1229 763 L 1228 763 L 1227 762 Z" fill="none" stroke="white" stroke-width="1"/>
  <path id="textPath36" d="M 483 762 L 482 763 L 481 763 L 480 764 L 479 764 L 478 765 L 477 765 L 475 767 L 477 767 L 478 768 L 480 766 L 481 766 L 481 765 L 482 764 L 483 765 L 488 765 L 489 764 L 490 765 L 495 765 L 495 764 L 494 764 L 493 763 L 492 763 L 491 762 Z" fill="none" stroke="white" stroke-width="1"/>
  <path id="textPath37" d="M 529 761 L 528 762 L 525 762 L 524 763 L 523 763 L 522 764 L 521 764 L 520 765 L 519 765 L 519 766 L 518 767 L 519 767 L 520 768 L 519 769 L 514 769 L 514 770 L 511 773 L 511 774 L 509 776 L 509 778 L 508 779 L 508 780 L 507 781 L 507 785 L 506 786 L 506 790 L 505 791 L 505 792 L 503 794 L 503 795 L 501 797 L 501 798 L 499 800 L 498 800 L 497 799 L 497 797 L 496 796 L 496 795 L 495 794 L 495 793 L 494 792 L 494 791 L 491 788 L 491 786 L 487 786 L 485 784 L 482 784 L 481 783 L 474 783 L 472 781 L 473 780 L 480 780 L 476 776 L 468 776 L 468 777 L 467 778 L 467 781 L 466 782 L 466 784 L 467 785 L 467 787 L 468 788 L 468 789 L 471 789 L 472 790 L 471 791 L 470 791 L 471 791 L 474 794 L 475 794 L 477 796 L 478 796 L 483 801 L 483 802 L 484 803 L 484 804 L 485 805 L 485 806 L 486 807 L 486 810 L 485 811 L 485 812 L 481 816 L 478 816 L 477 817 L 476 817 L 475 816 L 472 816 L 470 814 L 469 814 L 465 810 L 465 809 L 464 808 L 464 799 L 464 800 L 463 801 L 463 802 L 462 803 L 462 806 L 463 807 L 463 809 L 464 810 L 464 811 L 469 816 L 470 816 L 471 817 L 472 817 L 473 818 L 475 818 L 476 819 L 482 819 L 483 818 L 486 818 L 487 817 L 488 817 L 491 814 L 492 814 L 492 813 L 496 809 L 496 808 L 498 806 L 498 805 L 501 802 L 501 801 L 504 798 L 505 799 L 505 800 L 506 801 L 506 805 L 507 806 L 507 808 L 508 809 L 508 810 L 509 811 L 509 812 L 512 815 L 511 816 L 509 816 L 509 818 L 511 818 L 511 817 L 512 816 L 514 816 L 515 817 L 516 817 L 517 818 L 519 818 L 520 819 L 533 819 L 534 818 L 536 818 L 537 817 L 539 817 L 540 816 L 541 816 L 542 815 L 543 815 L 545 813 L 546 813 L 552 807 L 552 806 L 554 804 L 554 803 L 556 801 L 556 800 L 557 799 L 557 797 L 558 796 L 558 792 L 559 791 L 559 790 L 558 789 L 559 788 L 559 779 L 560 778 L 561 778 L 562 779 L 563 779 L 564 780 L 570 780 L 572 778 L 573 778 L 574 779 L 574 781 L 573 782 L 573 784 L 572 785 L 572 786 L 571 787 L 571 788 L 572 788 L 573 789 L 572 790 L 571 790 L 570 791 L 570 792 L 571 793 L 571 794 L 573 794 L 574 795 L 573 796 L 569 796 L 568 797 L 568 799 L 567 800 L 567 801 L 566 802 L 566 803 L 565 804 L 565 805 L 564 806 L 564 807 L 563 808 L 563 809 L 562 810 L 562 811 L 558 815 L 557 815 L 556 816 L 554 816 L 555 816 L 556 817 L 558 817 L 559 818 L 566 818 L 567 817 L 569 817 L 572 814 L 573 814 L 573 813 L 575 811 L 575 810 L 577 808 L 577 807 L 579 805 L 579 804 L 580 803 L 580 802 L 581 801 L 581 799 L 582 798 L 582 796 L 583 795 L 583 793 L 584 792 L 584 790 L 585 789 L 585 786 L 586 785 L 586 783 L 579 783 L 578 782 L 578 781 L 579 780 L 586 780 L 587 781 L 588 780 L 592 780 L 593 779 L 592 778 L 593 777 L 595 777 L 597 775 L 594 775 L 594 776 L 593 777 L 592 777 L 590 779 L 589 778 L 589 777 L 586 777 L 585 776 L 585 775 L 584 775 L 583 776 L 577 776 L 576 775 L 577 774 L 581 774 L 582 773 L 592 773 L 593 772 L 578 772 L 577 773 L 577 774 L 576 775 L 573 775 L 572 776 L 570 776 L 569 777 L 558 777 L 557 776 L 558 775 L 559 775 L 559 774 L 558 774 L 557 773 L 556 773 L 554 771 L 552 771 L 551 770 L 549 770 L 548 771 L 547 771 L 547 775 L 548 776 L 548 779 L 547 780 L 547 787 L 553 787 L 554 788 L 554 789 L 553 790 L 549 790 L 548 789 L 547 789 L 545 791 L 542 791 L 541 790 L 542 791 L 541 792 L 541 795 L 542 796 L 543 796 L 544 797 L 544 798 L 543 799 L 543 800 L 542 801 L 542 802 L 541 803 L 541 804 L 539 806 L 539 807 L 538 808 L 538 809 L 531 816 L 530 816 L 529 817 L 524 817 L 522 815 L 521 815 L 519 813 L 519 812 L 518 811 L 518 810 L 517 809 L 517 808 L 516 807 L 516 805 L 517 804 L 518 805 L 519 804 L 520 804 L 521 803 L 521 799 L 519 797 L 516 797 L 515 796 L 515 795 L 516 794 L 516 790 L 517 789 L 517 787 L 518 786 L 518 784 L 519 783 L 519 781 L 520 780 L 520 779 L 522 777 L 522 776 L 525 773 L 525 772 L 527 770 L 526 770 L 525 769 L 526 768 L 530 768 L 525 768 L 523 770 L 521 770 L 520 769 L 521 768 L 521 767 L 522 766 L 525 766 L 526 765 L 527 766 L 532 766 L 533 765 L 544 765 L 546 767 L 545 768 L 546 769 L 547 769 L 548 768 L 550 768 L 549 767 L 548 767 L 547 766 L 546 766 L 545 765 L 544 765 L 543 764 L 542 764 L 541 763 L 539 763 L 538 762 L 535 762 L 534 761 Z" fill="none" stroke="white" stroke-width="1"/>
  <path id="textPath38" d="M 1322 754 L 1319 757 L 1319 758 L 1315 762 L 1315 763 L 1312 766 L 1312 767 L 1308 771 L 1308 772 L 1305 775 L 1305 776 L 1308 773 L 1308 772 L 1311 769 L 1311 768 L 1316 763 L 1316 762 L 1320 758 L 1320 757 L 1323 754 Z" fill="none" stroke="white" stroke-width="1"/>
  <path id="textPath39" d="M 1296 753 L 1297 752 L 1308 752 L 1309 753 L 1308 754 L 1297 754 Z" fill="none" stroke="white" stroke-width="1"/>
  <path id="textPath40" d="M 236 753 L 235 754 L 234 754 L 234 755 L 233 756 L 233 757 L 234 758 L 234 759 L 238 759 L 239 758 L 239 755 L 238 754 L 237 754 Z" fill="none" stroke="white" stroke-width="1"/>
  <path id="textPath41" d="M 1091 750 L 1090 751 L 1090 752 L 1089 753 L 1089 754 L 1091 756 L 1093 756 L 1095 754 L 1095 752 L 1093 750 Z" fill="none" stroke="white" stroke-width="1"/>
  <path id="textPath42" d="M 177 744 L 175 746 L 175 749 L 177 751 L 181 751 L 182 750 L 182 745 L 181 744 Z" fill="none" stroke="white" stroke-width="1"/>
  <path id="textPath43" d="M 260 735 L 261 734 L 265 734 L 266 735 L 266 736 L 265 737 L 261 737 L 260 736 Z" fill="none" stroke="white" stroke-width="1"/>
  <path id="textPath44" d="M 284 730 L 283 731 L 281 731 L 279 733 L 279 740 L 282 740 L 283 739 L 284 740 L 284 741 L 283 742 L 283 743 L 282 744 L 282 745 L 281 746 L 281 747 L 278 750 L 278 752 L 279 752 L 281 750 L 281 749 L 283 747 L 283 746 L 284 745 L 284 743 L 285 742 L 285 741 L 286 740 L 286 739 L 287 738 L 287 733 L 285 731 L 285 730 Z" fill="none" stroke="white" stroke-width="1"/>
  <path id="textPath45" d="M 1213 728 L 1212 729 L 1211 729 L 1209 731 L 1209 732 L 1208 733 L 1208 738 L 1212 742 L 1217 742 L 1218 741 L 1219 741 L 1221 739 L 1221 738 L 1222 737 L 1222 733 L 1220 731 L 1220 730 L 1219 730 L 1217 728 Z" fill="none" stroke="white" stroke-width="1"/>
  <path id="textPath46" d="M 214 725 L 215 725 L 217 727 L 217 732 L 218 733 L 218 734 L 219 735 L 218 736 L 218 756 L 217 757 L 217 761 L 215 763 L 214 763 L 213 764 L 213 768 L 215 770 L 215 772 L 214 773 L 214 776 L 213 777 L 213 779 L 212 780 L 212 781 L 211 782 L 211 784 L 210 785 L 210 786 L 206 790 L 204 790 L 200 786 L 200 784 L 199 783 L 199 781 L 198 780 L 198 772 L 197 771 L 197 767 L 198 766 L 198 757 L 199 756 L 199 753 L 200 752 L 200 749 L 201 748 L 201 746 L 202 745 L 202 744 L 203 743 L 203 741 L 204 740 L 204 739 L 205 738 L 205 737 L 206 736 L 206 735 L 207 734 L 207 733 L 212 728 L 212 727 Z" fill="none" stroke="white" stroke-width="1"/>
  <path id="textPath47" d="M 1237 725 L 1236 726 L 1234 726 L 1233 727 L 1232 727 L 1231 728 L 1231 729 L 1230 730 L 1230 736 L 1231 737 L 1231 738 L 1232 739 L 1233 739 L 1234 740 L 1238 740 L 1239 739 L 1240 739 L 1241 738 L 1241 737 L 1242 736 L 1242 734 L 1243 733 L 1243 728 L 1242 727 L 1242 726 L 1241 726 L 1240 725 Z" fill="none" stroke="white" stroke-width="1"/>
  <path id="textPath48" d="M 266 721 L 267 720 L 271 720 L 272 721 L 271 722 L 271 723 L 270 724 L 268 722 L 267 723 L 266 722 Z" fill="none" stroke="white" stroke-width="1"/>
  <path id="textPath49" d="M 265 712 L 264 713 L 265 713 L 266 714 L 265 715 L 264 715 L 262 717 L 262 718 L 261 719 L 261 720 L 260 721 L 260 722 L 262 722 L 263 723 L 262 724 L 259 724 L 259 725 L 258 726 L 258 727 L 257 728 L 257 729 L 256 730 L 256 732 L 255 733 L 255 735 L 254 736 L 254 738 L 253 739 L 253 740 L 252 741 L 252 743 L 251 744 L 251 746 L 250 747 L 250 749 L 249 750 L 249 752 L 248 753 L 248 756 L 247 757 L 247 759 L 246 760 L 245 760 L 244 759 L 241 759 L 240 760 L 240 763 L 238 765 L 236 765 L 233 768 L 233 775 L 236 778 L 238 778 L 240 780 L 240 781 L 239 782 L 239 784 L 238 785 L 238 787 L 237 788 L 237 790 L 236 791 L 236 792 L 235 793 L 235 795 L 234 796 L 234 797 L 233 798 L 233 800 L 232 801 L 232 803 L 231 804 L 231 805 L 230 806 L 230 808 L 228 810 L 228 811 L 227 812 L 227 813 L 226 814 L 226 815 L 225 816 L 225 817 L 223 819 L 223 820 L 218 825 L 218 826 L 217 827 L 216 827 L 212 831 L 211 831 L 213 831 L 214 830 L 217 830 L 218 829 L 220 829 L 221 828 L 222 828 L 223 827 L 224 827 L 225 826 L 226 826 L 227 825 L 228 825 L 229 824 L 230 824 L 232 822 L 233 822 L 237 818 L 237 817 L 240 814 L 240 813 L 241 812 L 241 811 L 243 809 L 243 808 L 244 807 L 244 806 L 245 805 L 245 804 L 246 803 L 246 802 L 247 801 L 247 800 L 248 799 L 248 798 L 249 797 L 249 795 L 250 794 L 250 793 L 251 792 L 251 791 L 252 790 L 252 788 L 253 787 L 253 786 L 255 784 L 256 785 L 260 785 L 261 784 L 262 784 L 264 782 L 264 777 L 263 776 L 263 775 L 262 774 L 261 774 L 260 773 L 259 773 L 258 772 L 258 771 L 259 770 L 259 767 L 260 766 L 260 763 L 261 762 L 261 759 L 262 758 L 262 756 L 263 755 L 263 753 L 264 752 L 264 749 L 265 748 L 265 746 L 266 745 L 266 743 L 267 742 L 267 739 L 268 738 L 268 735 L 269 734 L 269 732 L 270 731 L 270 729 L 271 728 L 271 727 L 272 726 L 272 724 L 273 723 L 272 722 L 274 720 L 274 719 L 275 718 L 275 716 L 276 715 L 276 713 L 273 713 L 272 712 Z" fill="none" stroke="white" stroke-width="1"/>
  <path id="textPath50" d="M 213 712 L 212 713 L 211 713 L 211 714 L 212 715 L 212 716 L 213 717 L 213 718 L 214 719 L 214 720 L 215 721 L 211 725 L 211 726 L 209 728 L 209 729 L 207 731 L 207 732 L 205 734 L 205 735 L 203 737 L 203 738 L 202 739 L 202 741 L 201 742 L 201 744 L 200 745 L 200 746 L 199 747 L 199 749 L 198 750 L 198 752 L 197 753 L 197 756 L 196 757 L 196 760 L 195 761 L 195 766 L 194 767 L 194 777 L 195 778 L 195 786 L 196 787 L 196 790 L 197 791 L 197 793 L 198 794 L 198 796 L 199 797 L 199 798 L 202 801 L 203 801 L 204 802 L 207 802 L 208 801 L 210 801 L 214 797 L 214 796 L 216 794 L 216 793 L 217 792 L 217 791 L 218 790 L 218 789 L 219 788 L 219 787 L 220 786 L 220 785 L 221 784 L 221 781 L 222 780 L 222 778 L 223 777 L 223 774 L 224 773 L 224 770 L 225 769 L 225 767 L 228 764 L 228 762 L 225 759 L 225 741 L 224 740 L 224 735 L 223 734 L 223 730 L 222 729 L 222 726 L 221 725 L 221 721 L 220 720 L 220 717 L 224 713 L 221 713 L 220 714 L 220 715 L 219 716 L 218 715 L 218 714 L 217 713 L 214 713 Z" fill="none" stroke="white" stroke-width="1"/>
  <path id="textPath51" d="M 126 707 L 125 708 L 125 709 L 124 710 L 124 711 L 123 712 L 123 713 L 122 714 L 122 715 L 121 716 L 121 717 L 119 719 L 119 720 L 118 721 L 118 723 L 117 724 L 117 725 L 116 726 L 116 727 L 115 728 L 115 731 L 114 732 L 114 733 L 120 733 L 122 735 L 121 736 L 117 736 L 116 735 L 114 735 L 113 736 L 113 738 L 112 739 L 112 742 L 111 743 L 111 747 L 110 748 L 110 755 L 109 756 L 109 768 L 110 769 L 110 774 L 111 775 L 111 778 L 112 779 L 112 780 L 113 781 L 113 782 L 114 783 L 114 784 L 115 785 L 115 786 L 116 787 L 116 788 L 121 793 L 122 793 L 124 795 L 125 795 L 126 796 L 128 796 L 129 797 L 135 797 L 136 798 L 137 797 L 143 797 L 138 797 L 137 796 L 135 796 L 134 795 L 133 795 L 132 794 L 131 794 L 130 793 L 129 793 L 122 786 L 122 785 L 121 784 L 121 783 L 120 782 L 120 781 L 119 780 L 119 777 L 118 776 L 118 772 L 117 771 L 117 756 L 118 755 L 118 750 L 120 748 L 123 751 L 126 751 L 127 750 L 128 750 L 128 749 L 129 748 L 129 743 L 127 741 L 123 741 L 122 742 L 120 740 L 121 739 L 121 737 L 122 736 L 122 734 L 123 733 L 123 732 L 124 731 L 124 730 L 125 729 L 125 727 L 126 726 L 126 725 L 127 724 L 127 722 L 128 721 L 128 720 L 129 719 L 129 718 L 130 717 L 130 716 L 132 714 L 132 713 L 133 712 L 133 711 L 135 709 L 135 708 L 136 707 L 135 707 L 134 708 L 131 708 L 130 707 L 128 707 L 127 708 Z" fill="none" stroke="white" stroke-width="1"/>
  <path id="textPath52" d="M 272 703 L 269 706 L 269 707 L 267 709 L 269 709 L 270 708 L 272 708 L 273 707 L 274 707 L 275 708 L 275 709 L 277 709 L 279 707 L 279 706 L 280 705 L 280 704 L 281 703 Z" fill="none" stroke="white" stroke-width="1"/>
  <path id="textPath53" d="M 949 702 L 948 703 L 938 703 L 937 704 L 933 704 L 932 705 L 929 705 L 928 706 L 925 706 L 924 707 L 922 707 L 921 708 L 919 708 L 918 709 L 915 709 L 914 710 L 912 710 L 911 711 L 909 711 L 908 712 L 907 712 L 906 713 L 904 713 L 902 715 L 901 715 L 900 716 L 899 716 L 898 717 L 896 717 L 895 718 L 894 718 L 893 719 L 892 719 L 890 721 L 889 721 L 887 723 L 886 723 L 884 725 L 883 725 L 881 727 L 880 727 L 878 729 L 877 729 L 872 734 L 871 734 L 863 742 L 863 743 L 858 748 L 858 749 L 855 752 L 855 753 L 853 755 L 853 756 L 851 758 L 851 759 L 850 760 L 850 761 L 849 762 L 849 763 L 848 764 L 848 765 L 846 767 L 846 769 L 845 770 L 845 771 L 844 772 L 844 774 L 843 775 L 843 777 L 842 778 L 842 780 L 841 781 L 841 783 L 844 783 L 845 782 L 846 783 L 849 783 L 850 784 L 849 785 L 840 785 L 840 787 L 839 788 L 839 791 L 838 792 L 838 796 L 840 796 L 841 795 L 845 795 L 846 796 L 849 796 L 850 795 L 851 795 L 851 793 L 852 792 L 852 789 L 853 788 L 853 785 L 854 784 L 854 781 L 855 780 L 855 778 L 856 777 L 856 774 L 857 773 L 857 772 L 858 771 L 858 770 L 859 769 L 859 768 L 860 767 L 860 765 L 861 764 L 861 763 L 863 761 L 863 759 L 865 757 L 865 756 L 867 754 L 867 753 L 869 751 L 869 750 L 871 748 L 871 747 L 875 743 L 875 742 L 887 730 L 888 730 L 892 726 L 893 726 L 896 723 L 897 723 L 898 722 L 899 722 L 901 720 L 902 720 L 904 718 L 905 718 L 906 717 L 907 717 L 908 716 L 909 716 L 910 715 L 911 715 L 912 714 L 913 714 L 914 713 L 916 713 L 917 712 L 918 712 L 919 711 L 920 711 L 921 710 L 923 710 L 924 709 L 925 709 L 926 708 L 929 708 L 930 707 L 934 707 L 935 706 L 939 706 L 940 705 L 944 705 L 945 704 L 952 704 L 953 703 L 973 703 L 974 704 L 981 704 L 982 705 L 986 705 L 987 706 L 992 706 L 993 707 L 997 707 L 998 708 L 1000 708 L 1001 709 L 1003 709 L 1004 710 L 1006 710 L 1007 711 L 1008 711 L 1009 712 L 1010 712 L 1011 713 L 1013 713 L 1014 714 L 1016 714 L 1017 715 L 1018 715 L 1019 716 L 1020 716 L 1021 717 L 1022 717 L 1023 718 L 1024 718 L 1026 720 L 1027 720 L 1028 721 L 1029 721 L 1031 723 L 1032 723 L 1033 724 L 1034 724 L 1040 730 L 1041 730 L 1044 733 L 1044 734 L 1048 738 L 1048 739 L 1049 740 L 1049 741 L 1050 742 L 1050 743 L 1051 744 L 1051 745 L 1052 746 L 1052 747 L 1053 748 L 1053 749 L 1054 750 L 1054 752 L 1055 753 L 1055 757 L 1056 758 L 1056 777 L 1055 778 L 1057 778 L 1058 777 L 1061 777 L 1062 776 L 1063 777 L 1064 777 L 1064 764 L 1063 763 L 1063 758 L 1062 757 L 1062 754 L 1061 753 L 1061 751 L 1060 750 L 1060 748 L 1059 747 L 1059 745 L 1058 744 L 1058 743 L 1056 741 L 1056 740 L 1054 738 L 1054 737 L 1043 726 L 1042 726 L 1040 724 L 1039 724 L 1036 721 L 1035 721 L 1033 719 L 1032 719 L 1031 718 L 1029 718 L 1027 716 L 1026 716 L 1025 715 L 1024 715 L 1023 714 L 1022 714 L 1021 713 L 1020 713 L 1019 712 L 1018 712 L 1017 711 L 1014 711 L 1013 710 L 1011 710 L 1010 709 L 1008 709 L 1007 708 L 1005 708 L 1004 707 L 1002 707 L 1001 706 L 998 706 L 997 705 L 995 705 L 994 704 L 989 704 L 988 703 L 978 703 L 977 702 Z" fill="none" stroke="white" stroke-width="1"/>
  <path id="textPath54" d="M 208 700 L 209 701 L 209 702 L 208 703 L 205 703 L 207 705 L 207 706 L 208 707 L 208 708 L 209 708 L 210 709 L 215 709 L 213 707 L 213 706 L 212 705 L 212 704 L 211 703 L 210 703 L 209 702 L 209 701 Z" fill="none" stroke="white" stroke-width="1"/>
  <path id="textPath55" d="M 1135 691 L 1134 692 L 1134 696 L 1135 696 L 1136 697 L 1137 697 L 1139 695 L 1139 692 L 1138 691 Z" fill="none" stroke="white" stroke-width="1"/>
  <path id="textPath56" d="M 250 689 L 249 690 L 246 690 L 245 691 L 244 691 L 243 692 L 242 692 L 241 693 L 240 693 L 237 696 L 236 696 L 234 698 L 234 699 L 235 700 L 234 701 L 232 701 L 233 702 L 236 702 L 237 701 L 240 701 L 239 700 L 240 699 L 241 699 L 242 698 L 246 698 L 247 699 L 254 699 L 255 698 L 258 698 L 259 699 L 263 699 L 264 698 L 265 699 L 270 699 L 271 698 L 273 698 L 274 699 L 282 699 L 284 697 L 284 696 L 285 695 L 285 694 L 286 693 L 286 692 L 284 692 L 283 693 L 277 693 L 276 692 L 269 692 L 268 691 L 264 691 L 263 690 L 259 690 L 258 689 Z" fill="none" stroke="white" stroke-width="1"/>
  <path id="textPath57" d="M 1173 685 L 1172 686 L 1166 686 L 1165 687 L 1161 687 L 1160 688 L 1158 688 L 1157 689 L 1156 689 L 1155 690 L 1154 690 L 1153 691 L 1152 691 L 1151 692 L 1150 692 L 1149 693 L 1148 693 L 1146 695 L 1144 695 L 1142 697 L 1141 697 L 1140 698 L 1139 698 L 1137 700 L 1136 700 L 1135 701 L 1134 701 L 1132 703 L 1131 703 L 1130 704 L 1129 704 L 1128 705 L 1127 705 L 1125 707 L 1124 707 L 1123 708 L 1122 708 L 1121 709 L 1120 709 L 1119 710 L 1118 710 L 1117 711 L 1116 711 L 1115 712 L 1114 712 L 1113 713 L 1111 713 L 1110 714 L 1109 714 L 1108 715 L 1105 715 L 1104 716 L 1101 716 L 1098 713 L 1098 707 L 1099 706 L 1099 704 L 1100 703 L 1100 702 L 1101 701 L 1101 700 L 1102 699 L 1102 698 L 1104 696 L 1104 695 L 1107 692 L 1107 691 L 1108 690 L 1109 690 L 1112 687 L 1111 687 L 1110 688 L 1107 688 L 1106 689 L 1104 689 L 1103 690 L 1102 690 L 1095 697 L 1095 698 L 1093 700 L 1093 701 L 1092 702 L 1092 703 L 1091 704 L 1091 705 L 1090 706 L 1090 708 L 1089 709 L 1089 714 L 1091 716 L 1092 716 L 1093 717 L 1094 717 L 1095 718 L 1102 718 L 1103 717 L 1107 717 L 1108 716 L 1110 716 L 1111 715 L 1114 715 L 1115 714 L 1117 714 L 1118 713 L 1119 713 L 1120 712 L 1121 712 L 1122 711 L 1123 711 L 1124 710 L 1125 710 L 1126 709 L 1127 709 L 1128 708 L 1129 708 L 1130 709 L 1129 710 L 1129 711 L 1127 713 L 1127 715 L 1126 716 L 1126 717 L 1125 718 L 1125 719 L 1124 720 L 1124 721 L 1123 722 L 1123 723 L 1122 724 L 1122 725 L 1121 726 L 1121 727 L 1120 728 L 1120 729 L 1119 730 L 1119 731 L 1118 732 L 1118 735 L 1117 736 L 1117 737 L 1116 738 L 1116 740 L 1115 741 L 1115 742 L 1114 743 L 1114 745 L 1113 746 L 1113 747 L 1112 748 L 1112 750 L 1111 751 L 1111 753 L 1110 754 L 1110 757 L 1109 758 L 1109 760 L 1108 761 L 1106 761 L 1105 762 L 1104 762 L 1101 765 L 1101 766 L 1100 767 L 1100 771 L 1099 772 L 1094 772 L 1093 771 L 1089 771 L 1087 773 L 1087 774 L 1089 776 L 1088 777 L 1087 777 L 1089 779 L 1091 779 L 1092 780 L 1093 780 L 1094 779 L 1103 779 L 1104 780 L 1101 783 L 1100 783 L 1099 784 L 1096 784 L 1099 784 L 1100 785 L 1100 786 L 1099 787 L 1099 789 L 1098 790 L 1098 791 L 1104 791 L 1105 790 L 1106 790 L 1107 791 L 1107 792 L 1106 793 L 1097 793 L 1097 794 L 1096 795 L 1096 797 L 1095 798 L 1094 798 L 1092 796 L 1091 796 L 1088 793 L 1087 793 L 1085 791 L 1084 791 L 1083 790 L 1082 790 L 1081 789 L 1080 789 L 1079 788 L 1078 788 L 1077 787 L 1076 787 L 1075 786 L 1074 786 L 1073 785 L 1071 785 L 1070 784 L 1069 784 L 1068 783 L 1059 783 L 1058 782 L 1058 781 L 1050 781 L 1052 781 L 1054 783 L 1056 783 L 1057 784 L 1056 785 L 1054 785 L 1054 786 L 1053 787 L 1053 789 L 1052 790 L 1052 793 L 1051 794 L 1052 794 L 1053 795 L 1051 797 L 1050 797 L 1049 798 L 1049 800 L 1048 801 L 1048 802 L 1047 803 L 1047 804 L 1046 805 L 1046 806 L 1045 807 L 1045 808 L 1042 811 L 1042 812 L 1037 817 L 1043 817 L 1044 816 L 1045 816 L 1049 812 L 1049 811 L 1052 808 L 1052 807 L 1054 805 L 1054 804 L 1056 802 L 1056 801 L 1058 799 L 1058 798 L 1059 797 L 1059 795 L 1060 794 L 1060 793 L 1061 792 L 1061 791 L 1062 790 L 1062 788 L 1063 787 L 1063 786 L 1064 785 L 1066 785 L 1067 786 L 1068 786 L 1069 787 L 1071 787 L 1072 788 L 1073 788 L 1074 789 L 1075 789 L 1076 790 L 1077 790 L 1078 791 L 1079 791 L 1080 792 L 1081 791 L 1082 792 L 1082 793 L 1083 793 L 1084 794 L 1085 794 L 1088 797 L 1089 797 L 1092 800 L 1093 800 L 1094 801 L 1094 804 L 1093 805 L 1093 806 L 1092 807 L 1092 809 L 1091 810 L 1091 811 L 1090 812 L 1090 813 L 1089 814 L 1089 816 L 1088 817 L 1088 818 L 1087 819 L 1087 820 L 1089 820 L 1090 819 L 1091 819 L 1092 820 L 1090 822 L 1089 822 L 1088 823 L 1087 823 L 1086 822 L 1084 824 L 1084 825 L 1079 830 L 1078 830 L 1077 831 L 1076 831 L 1075 832 L 1074 832 L 1073 833 L 1072 833 L 1071 834 L 1070 834 L 1069 835 L 1069 836 L 1071 836 L 1072 835 L 1074 835 L 1075 834 L 1077 834 L 1078 833 L 1079 833 L 1080 832 L 1082 832 L 1083 831 L 1084 831 L 1085 830 L 1086 830 L 1087 829 L 1086 829 L 1084 827 L 1084 826 L 1085 825 L 1089 825 L 1090 826 L 1091 825 L 1093 825 L 1097 821 L 1095 821 L 1094 820 L 1096 818 L 1099 818 L 1100 817 L 1100 816 L 1102 814 L 1102 813 L 1103 812 L 1104 813 L 1104 814 L 1105 815 L 1105 816 L 1107 818 L 1109 818 L 1110 817 L 1107 814 L 1107 813 L 1105 811 L 1105 808 L 1106 807 L 1106 806 L 1107 805 L 1107 803 L 1108 802 L 1108 801 L 1109 800 L 1109 799 L 1110 798 L 1110 796 L 1111 795 L 1111 794 L 1109 794 L 1108 793 L 1109 792 L 1112 792 L 1113 791 L 1113 789 L 1114 788 L 1114 787 L 1113 786 L 1112 786 L 1111 785 L 1112 784 L 1115 784 L 1113 784 L 1112 783 L 1111 783 L 1110 782 L 1110 781 L 1111 780 L 1114 780 L 1115 781 L 1116 781 L 1117 780 L 1120 780 L 1121 781 L 1122 780 L 1122 777 L 1121 776 L 1119 776 L 1118 775 L 1118 774 L 1119 773 L 1119 771 L 1120 770 L 1120 769 L 1121 768 L 1121 766 L 1122 765 L 1122 762 L 1123 761 L 1123 759 L 1124 758 L 1124 756 L 1125 755 L 1125 753 L 1126 752 L 1126 750 L 1127 749 L 1127 748 L 1128 747 L 1128 745 L 1129 744 L 1129 741 L 1130 740 L 1130 738 L 1131 737 L 1131 735 L 1132 734 L 1132 732 L 1133 731 L 1133 730 L 1134 729 L 1134 728 L 1135 727 L 1135 725 L 1136 724 L 1136 723 L 1137 722 L 1137 721 L 1138 720 L 1138 718 L 1139 717 L 1139 716 L 1141 714 L 1143 716 L 1145 716 L 1146 717 L 1147 716 L 1149 716 L 1149 715 L 1150 714 L 1150 710 L 1149 709 L 1148 709 L 1147 708 L 1145 708 L 1144 707 L 1144 706 L 1145 705 L 1145 704 L 1146 703 L 1146 702 L 1147 701 L 1147 700 L 1149 698 L 1149 697 L 1154 692 L 1155 692 L 1156 691 L 1158 691 L 1159 690 L 1171 690 L 1172 691 L 1175 691 L 1176 692 L 1177 692 L 1184 699 L 1184 700 L 1186 702 L 1186 704 L 1187 705 L 1187 707 L 1188 708 L 1188 711 L 1189 712 L 1189 741 L 1188 742 L 1188 747 L 1187 748 L 1187 752 L 1186 753 L 1186 756 L 1185 757 L 1185 760 L 1184 761 L 1184 763 L 1183 764 L 1183 767 L 1182 768 L 1182 770 L 1181 771 L 1181 774 L 1197 774 L 1198 773 L 1198 771 L 1199 770 L 1199 768 L 1200 767 L 1200 765 L 1201 764 L 1201 760 L 1202 759 L 1202 756 L 1203 755 L 1203 752 L 1204 751 L 1204 748 L 1205 747 L 1209 747 L 1209 745 L 1208 744 L 1206 744 L 1205 743 L 1205 739 L 1206 738 L 1206 724 L 1205 723 L 1205 717 L 1204 716 L 1204 713 L 1203 712 L 1203 711 L 1202 710 L 1202 708 L 1201 707 L 1201 706 L 1200 705 L 1200 704 L 1199 703 L 1199 702 L 1198 701 L 1198 700 L 1195 697 L 1195 696 L 1190 691 L 1189 691 L 1186 688 L 1185 688 L 1184 687 L 1181 687 L 1180 686 L 1174 686 Z" fill="none" stroke="white" stroke-width="1"/>
  <path id="textPath58" d="M 161 680 L 160 681 L 157 681 L 160 681 L 161 680 L 167 680 L 168 681 L 167 682 L 163 682 L 162 683 L 156 683 L 154 685 L 153 684 L 151 686 L 149 686 L 148 687 L 147 687 L 146 688 L 143 688 L 141 690 L 144 690 L 145 691 L 144 692 L 139 692 L 138 693 L 137 693 L 136 694 L 136 695 L 133 698 L 133 699 L 132 700 L 131 700 L 130 701 L 130 702 L 129 703 L 130 702 L 139 702 L 140 701 L 136 701 L 135 700 L 136 699 L 137 699 L 138 698 L 142 698 L 149 691 L 150 691 L 152 689 L 153 689 L 154 688 L 152 688 L 151 687 L 152 686 L 160 686 L 161 685 L 164 685 L 165 684 L 179 684 L 180 685 L 182 685 L 183 686 L 185 686 L 186 687 L 187 687 L 188 688 L 189 688 L 190 689 L 191 689 L 192 690 L 193 690 L 196 693 L 197 693 L 201 697 L 201 698 L 202 699 L 203 698 L 206 698 L 202 694 L 201 694 L 198 691 L 197 691 L 195 689 L 193 689 L 191 687 L 190 687 L 189 686 L 188 686 L 187 685 L 186 685 L 185 684 L 184 684 L 183 683 L 182 683 L 181 682 L 179 682 L 178 681 L 174 681 L 173 680 Z" fill="none" stroke="white" stroke-width="1"/>
  <path id="textPath59" d="M 1333 677 L 1332 678 L 1331 678 L 1330 679 L 1329 679 L 1327 681 L 1326 681 L 1323 684 L 1323 685 L 1321 687 L 1321 688 L 1319 690 L 1319 691 L 1317 693 L 1317 694 L 1316 695 L 1316 696 L 1315 697 L 1315 698 L 1314 699 L 1314 701 L 1313 702 L 1313 703 L 1312 704 L 1312 705 L 1311 706 L 1311 708 L 1310 709 L 1310 710 L 1309 711 L 1309 712 L 1308 713 L 1308 715 L 1307 716 L 1307 718 L 1306 719 L 1306 722 L 1305 723 L 1305 725 L 1304 726 L 1304 728 L 1303 729 L 1303 731 L 1302 732 L 1302 734 L 1301 735 L 1301 737 L 1300 738 L 1300 740 L 1299 741 L 1299 745 L 1298 746 L 1298 748 L 1297 749 L 1297 752 L 1296 753 L 1296 755 L 1295 756 L 1295 759 L 1294 760 L 1294 762 L 1293 763 L 1293 765 L 1292 766 L 1292 769 L 1291 770 L 1292 771 L 1293 770 L 1294 770 L 1295 771 L 1295 772 L 1294 773 L 1291 773 L 1290 774 L 1290 776 L 1291 776 L 1292 775 L 1301 775 L 1302 776 L 1303 776 L 1302 775 L 1303 774 L 1303 772 L 1304 771 L 1304 770 L 1305 769 L 1305 767 L 1306 766 L 1306 765 L 1307 764 L 1307 762 L 1308 761 L 1308 760 L 1309 759 L 1309 756 L 1310 755 L 1310 752 L 1311 751 L 1311 749 L 1312 748 L 1312 746 L 1313 745 L 1313 743 L 1314 742 L 1314 740 L 1315 739 L 1315 738 L 1316 737 L 1316 734 L 1317 733 L 1317 731 L 1318 730 L 1318 727 L 1319 726 L 1319 724 L 1320 723 L 1320 721 L 1321 720 L 1321 719 L 1322 718 L 1322 716 L 1323 715 L 1323 713 L 1324 712 L 1324 710 L 1325 709 L 1325 707 L 1326 706 L 1326 704 L 1327 703 L 1327 701 L 1328 700 L 1328 699 L 1329 698 L 1329 696 L 1330 695 L 1330 694 L 1331 693 L 1331 692 L 1333 690 L 1333 689 L 1334 688 L 1334 687 L 1337 684 L 1338 684 L 1339 683 L 1345 683 L 1351 689 L 1351 690 L 1352 691 L 1352 693 L 1353 694 L 1353 700 L 1352 701 L 1352 704 L 1349 707 L 1348 707 L 1348 708 L 1347 709 L 1347 710 L 1348 711 L 1348 714 L 1347 715 L 1347 716 L 1346 717 L 1346 718 L 1345 719 L 1345 720 L 1344 721 L 1344 722 L 1343 723 L 1343 724 L 1341 726 L 1340 726 L 1338 728 L 1338 729 L 1337 730 L 1337 733 L 1335 735 L 1335 736 L 1333 738 L 1333 739 L 1331 741 L 1331 742 L 1329 744 L 1329 745 L 1326 748 L 1326 749 L 1323 752 L 1325 752 L 1325 751 L 1328 748 L 1328 747 L 1332 743 L 1332 742 L 1334 740 L 1334 739 L 1336 737 L 1337 737 L 1340 740 L 1345 740 L 1346 739 L 1347 739 L 1348 738 L 1348 737 L 1349 736 L 1349 732 L 1350 731 L 1350 729 L 1349 728 L 1349 727 L 1347 725 L 1346 725 L 1345 724 L 1346 723 L 1346 722 L 1347 721 L 1347 720 L 1348 719 L 1348 718 L 1349 717 L 1349 716 L 1350 715 L 1350 714 L 1353 711 L 1353 706 L 1354 705 L 1354 702 L 1355 701 L 1355 690 L 1354 689 L 1354 688 L 1353 687 L 1353 686 L 1351 684 L 1351 683 L 1348 680 L 1347 680 L 1346 679 L 1345 679 L 1344 678 L 1342 678 L 1341 677 Z" fill="none" stroke="white" stroke-width="1"/>
</svg>